<?xml version="1.0" encoding="UTF-8"?>
<svg id="svg168" xmlns="http://www.w3.org/2000/svg" version="1.1" xmlns:svg="http://www.w3.org/2000/svg" viewBox="0 0 682.7 682.7">
  <!-- Generator: Adobe Illustrator 29.8.5, SVG Export Plug-In . SVG Version: 2.1.1 Build 2)  -->
  <defs>
    <style>
      .st0 {
        fill: #f5f0e5;
        stroke-miterlimit: 10;
      }

      .st0, .st1 {
        stroke: #f5f0e5;
      }

      .st1 {
        fill: none;
        stroke-miterlimit: 13.3;
        stroke-width: 53.3px;
      }
    </style>
  </defs>
  <g id="g174">
    <g id="g176">
      <g id="g178">
        <g id="g184">
          <path id="path186" class="st1" d="M656,341.3c0,28.1-.4,56.1-.8,84.2-.5,33.9-1,67.7-9.5,101-8.9,34.9-26.5,65-53.8,87.3-28.8,23.5-63.6,35.8-101.1,38.1-49.8,3-99.6,4.2-149.5,4.1-49.8.1-99.7-1.1-149.5-4.1-37.6-2.3-72.4-14.6-101.1-38.1-27.3-22.3-44.9-52.4-53.8-87.3-8.5-33.3-9-67.1-9.5-101-.4-28.1-.7-56.1-.8-84.2,0-28.1.4-56.1.8-84.2.5-33.9,1-67.7,9.5-101,8.9-34.9,26.5-65,53.8-87.3,28.8-23.5,63.6-35.8,101.1-38.1,49.8-3,99.6-4.2,149.5-4.1,49.8-.1,99.7,1.1,149.5,4.1,37.6,2.3,72.4,14.6,101.1,38.1,27.3,22.3,44.9,52.4,53.8,87.3,8.5,33.3,9,67.1,9.5,101,.4,28.1.7,56.1.8,84.2Z"/>
        </g>
        <g id="g188">
          <path id="path190" class="st1" d="M480,341.3c0,77.3-62.7,140-140,140s-140-62.7-140-140,62.7-140,140-140,140,62.7,140,140Z"/>
        </g>
        <g id="g192">
          <path id="path194" class="st0" d="M565.3,161.3c0,22.1-17.9,40-40,40s-40-17.9-40-40,17.9-40,40-40,40,17.9,40,40"/>
        </g>
      </g>
    </g>
  </g>
</svg>