<?xml version="1.0" encoding="UTF-8"?>
<svg id="Layer_1" data-name="Layer 1" xmlns="http://www.w3.org/2000/svg" viewBox="0 0 512 512">
  <defs>
    <style>
      .cls-1 {
        fill: #464a2f;
      }
    </style>
  </defs>
  <path class="cls-1" d="M451.07,220.29c-.45-28.26-11.34-55.89-29.37-75.22,4.81-9.55,7.32-20.1,7.31-30.79,0-37.9-30.84-68.74-68.74-68.74s-68.77,30.84-68.77,68.74c0,7.41,1.19,14.54,3.37,21.23-14.4,8.39-29.02,19.62-43.6,33.48-14.58-13.86-29.19-25.09-43.6-33.48,2.24-6.86,3.37-14.02,3.37-21.23,0-37.9-30.84-68.74-68.74-68.74s-68.77,30.84-68.77,68.74c0,10.7,2.5,21.24,7.31,30.79-18.03,19.32-28.92,46.96-29.37,75.22-.48,29.52,10.12,56.64,29.84,76.35l93.96,93.96h0s0,.01,0,.01l70.32,70.32c1.56,1.56,3.61,2.34,5.65,2.34s4.09-.78,5.65-2.34l70.32-70.32h0s0-.01,0-.01l93.96-93.96c19.72-19.72,30.32-46.83,29.84-76.35h0ZM360.27,61.53c29.09,0,52.75,23.67,52.75,52.75s-23.67,52.75-52.75,52.75-52.78-23.67-52.78-52.75,23.68-52.75,52.78-52.75h0ZM142.32,61.53c29.09,0,52.75,23.67,52.75,52.75s-23.67,52.75-52.75,52.75-52.78-23.67-52.78-52.75,23.68-52.75,52.78-52.75ZM251.28,443.98l-59.02-59.02,12.49-12.49c12.51-12.51,13.08-32.48,1.75-45.68,3.34-.8,6.77-1.21,10.2-1.21h69.17c3.44,0,6.86.42,10.2,1.21-11.33,13.21-10.76,33.18,1.75,45.68l12.49,12.49-59.02,59.02h0ZM251.28,309.59c-24.52,0-44.48-19.95-44.48-44.48s19.95-44.48,44.48-44.48,44.48,19.95,44.48,44.48-19.95,44.48-44.48,44.48h0ZM321.61,373.66l-12.49-12.49c-6.89-6.89-6.89-18.09,0-24.98l6.8-6.8.07-.07,87.33-87.33c3.12-3.12,3.12-8.18,0-11.3s-8.18-3.12-11.3,0l-83.38,83.38c-5.36-2.19-11.01-3.59-16.77-4.18,12.21-11.07,19.88-27.05,19.88-44.78,0-33.34-27.12-60.46-60.46-60.46s-60.46,27.12-60.46,60.46c0,17.74,7.68,33.71,19.88,44.78-5.76.58-11.41,1.99-16.77,4.18l-83.38-83.38c-3.12-3.12-8.18-3.12-11.31,0s-3.12,8.18,0,11.3l87.23,87.23.02.02,6.95,6.95c6.89,6.89,6.89,18.09,0,24.98l-12.49,12.49-88.32-88.32c-16.63-16.63-25.57-39.64-25.16-64.79.37-23.01,8.66-45.44,22.53-61.73,12.62,14.79,31.39,24.2,52.31,24.2,24.78,0,46.54-13.19,58.64-32.91,14.65,8.72,29.65,20.7,44.68,35.71,1.56,1.56,3.6,2.34,5.65,2.34s4.09-.78,5.65-2.34c15.03-15.01,30.03-26.99,44.68-35.71,12.1,19.73,33.87,32.91,58.66,32.91,20.92,0,39.67-9.4,52.29-24.19,13.86,16.29,22.15,38.72,22.52,61.72.4,25.15-8.53,48.16-25.16,64.79l-88.32,88.32h0Z"/>
</svg>