<svg xmlns="http://www.w3.org/2000/svg" version="1.1" xmlns:xlink="http://www.w3.org/1999/xlink" width="512" height="512" x="0" y="0" viewBox="0 0 512 512" style="enable-background:new 0 0 512 512" xml:space="preserve" class=""><g><path d="M451.069 220.293c-.455-28.26-11.336-55.893-29.368-75.217a68.289 68.289 0 0 0 7.311-30.794c0-37.903-30.836-68.74-68.74-68.74s-68.769 30.837-68.769 68.74c0 7.409 1.193 14.54 3.373 21.232-14.402 8.394-29.018 19.619-43.596 33.484-14.579-13.864-29.194-25.089-43.595-33.483a68.44 68.44 0 0 0 3.372-21.232c0-37.903-30.837-68.74-68.74-68.74s-68.769 30.837-68.769 68.74a68.282 68.282 0 0 0 7.313 30.792c-18.033 19.324-28.915 46.958-29.37 75.219-.476 29.519 10.122 56.635 29.841 76.354l93.964 93.964.005.005.005.005 70.323 70.323c1.561 1.561 3.606 2.341 5.652 2.341s4.091-.78 5.652-2.341l70.323-70.323.005-.005.005-.005 93.964-93.964c19.718-19.718 30.316-46.834 29.841-76.353zM360.272 61.529c29.088 0 52.752 23.665 52.752 52.753s-23.665 52.753-52.752 52.753-52.781-23.665-52.781-52.753 23.678-52.753 52.781-52.753zm-217.956 0c29.088 0 52.753 23.665 52.753 52.753s-23.665 52.753-52.753 52.753-52.781-23.665-52.781-52.753 23.678-52.753 52.781-52.753zM251.28 443.985l-59.023-59.023 12.489-12.489c12.505-12.505 13.082-32.478 1.75-45.684a44.12 44.12 0 0 1 10.201-1.213h69.166c3.437 0 6.863.419 10.201 1.212-11.332 13.206-10.755 33.179 1.75 45.684l12.49 12.49-59.023 59.023zm0-134.396c-24.524 0-44.476-19.952-44.476-44.476s19.952-44.476 44.476-44.476 44.476 19.952 44.476 44.476-19.952 44.476-44.476 44.476zm70.328 64.068-12.49-12.49c-6.886-6.887-6.886-18.092 0-24.979l6.803-6.803.066-.066 87.326-87.326c3.122-3.122 3.122-8.183 0-11.305s-8.183-3.122-11.305 0l-83.383 83.383a60.533 60.533 0 0 0-16.766-4.176c12.206-11.07 19.884-27.047 19.884-44.784 0-33.339-27.124-60.463-60.463-60.463s-60.463 27.124-60.463 60.463c0 17.737 7.678 33.714 19.884 44.784a60.505 60.505 0 0 0-16.767 4.176l-83.383-83.383c-3.122-3.122-8.183-3.122-11.305 0s-3.122 8.183 0 11.305l87.229 87.229.018.018 6.948 6.948c6.887 6.887 6.887 18.092 0 24.979l-12.489 12.489-88.316-88.316c-16.63-16.63-25.565-39.64-25.16-64.792.37-23.005 8.661-45.438 22.525-61.726 12.623 14.792 31.386 24.198 52.315 24.198 24.784 0 46.543-13.188 58.639-32.911 14.652 8.722 29.647 20.698 44.677 35.705 1.56 1.558 3.604 2.337 5.648 2.337s4.088-.779 5.648-2.337c15.03-15.008 30.027-26.985 44.68-35.707 12.101 19.725 33.869 32.913 58.664 32.913 20.919 0 39.672-9.404 52.29-24.194 13.861 16.288 22.151 38.719 22.521 61.722.405 25.151-8.53 48.161-25.16 64.791l-88.316 88.316z" fill="#ffffff" opacity="1" data-original="#000000"></path></g></svg>