<?xml version="1.0" encoding="UTF-8"?>
<svg id="Layer_1" data-name="Layer 1" xmlns="http://www.w3.org/2000/svg" xmlns:xlink="http://www.w3.org/1999/xlink" viewBox="0 0 1920 1080">
  <defs>
    <style>
      .cls-1 {
        fill: none;
      }

      .cls-2 {
        clip-path: url(#clippath);
      }
    </style>
    <clipPath id="clippath">
      <path class="cls-1" d="M1927.65,0v657.5h-7.13v422.28c-4.64-1.92-9.39-3.36-13.75-5.97-4.2-2.54-13.08-13.24-16.29-10.91l3.75,5.59c-6.34-.8-4.94-6.55-13.14-8.6-18.98-4.73-33.53-2.92-51.18-5.08-12.07-1.49-44.47-17.8-54.72-16.45-1.22.15-1.03,3.21-2.01,3.44-5.5,1.33-27.39-.72-29.13.45l-.02,9.37c-17.39-8.68-31.66,1.33-48.8,3.77l11.27,5.63c-2.69,6.38-11.13,1.43-17.82,1.8-2.87.17-5.44-1.33-4.73,2.89.92,5.3,8.69,7.29,13.16,8.45,3.51,4.7-14.89,1.8-15.73,1.95-1.5.29-.47,3.72-3.9,3.89-.85.06-15.89-2.08-16.69-2.36-2.41-.81-2.41-4.13-3.59-4.87-2.2-1.33-5.63.08-8-2.27-.88-.86,1.67-5.89-4.07-9.14-7.47-4.22-22.7-1.18-32.87-4.3-1.45-.43-1.6-3-2.99-3.4-3.62-.99-18.42-2.64-19.26-3.11-2.87-1.56-3.06-6.31-4.88-6.59-2.31-.36-9.33,2.34-14.66,2.04-9.99-.54-26.45-7.58-37.85-9.18-20.97-2.91-47.48-2.14-68.28-8.69-6.68-2.1-15.19-9.37-21.64-10.31-2.95-.41-3.14-.13-2.8,2.8l7.53.98c-2.82,7.15-11.36,0-16.9-.04,9.05-9.33-8.49-12.52-16.88-11.23l7.49,3.76c.51,2.44-3.51,3-5.14,3.26-18.49,2.78-38.52,1.98-56.81-1.42l1.88-5.6-8.67,3.57-3.74-3.72-21.91,5.5c-3.55-3.92-11.32-5.89-13.95-7.81-1.86-1.35-2.74-6.32-6.19-7.86-4.66-2.1-9.8.09-13.78-1.24-2.87-.96-2.89-5.43-6.29-6.85-3.36-1.39-25.5-6.95-28.57-7.01-3.23-.05-6.91,4.51-11.4,2.86l-.13-5.41c-7.06-.96-16.11-.94-22.89-2.55-6.6-1.56-8.84-7.74-20.76-5.11-.94.21-2.82,6.46-8.79,3.68l5.62-4.67c-1.18-2.48-7.72-4.15-10.5-4.53-13.85-1.84-34.3,1.24-46.24-.54-10.75-1.62-23.89-9.05-34.86-12.22-10.83-3.14-25.42-7.44-36.06-6.2l1.78-3.58c-11.99-7.72-18.86.6-29.92,5.48l1.86-7.49c-4.79-.12-8.26,1.7-13.26,1.1-6.34-.78-9.7-11.77-16.82-3.96-3.87,4.25,6.14,6.72,9.31,7.64,4.66,1.34,12.9-1.46,11.38,4.57-7.38,1.53-14.76-1.86-21.55-1.94-3.72-.04-3.04.26-2.86,3.79l22.51,9.41c-10.08,3.38-42.59,5.11-46.89-6.57-1.79-4.83,6.72-1.73,5.61-3.74-3.89-2.44-8.33-6.46-9.84-10.9-.95-2.8.77-6.11.32-6.69-.32-.41-8.86-4.71-9.38-4.88-8.32-2.68-20.88-6.87-29.63-8-15.39-1.99-34.56,2.37-49.09-5.2-2.72-1.4-2.91-5.08-4.17-5.95-.82-.56-18.36-3.96-19.62-3.98-3.11-.05-5.61,4.55-10.92,3.36-2.8-.64-3.27-4.05-.06-5.57l6.59,1.82c-.9-10.48-13.55-3.83-19.49-3.94-11.28-.23-19.58-7.46-32.15,2.02l2.85,7.53c-5.8.9-13.87-1.11-9.39,7.51-5.4.62-4.05-2.29-4.71-5.63-8.04,3.49-14.1,7.32-23.45,5.63l1.88-11.23c-1.01-.9-23.19-2.64-26.7-3.9-2.89-1.03-7.54-10.61-12.72.11,7.99,1.05,11.95,5.3,5.12,10.7-15.15.51-29.4,7.53-44.55,4.32l11.27-4.67-5.64-4.68c6.61-1.41,21.76,4.24,22.53-5.63-11.79-.9-27.07,4.3-38.41,2.76-5.56-.75-13.76-5.5-19.6-5.63-4.2-.1-7.75,3.45-14.25,2.98-20.12-1.42-36.59-10.83-59.87-7.41-2.12.32-8.74.65-8.65,3.51,10.93-.32,22,.35,32.82,1.93,2.55.38,5.68.75,2.83,3.7-2.87.41-5.54,1.91-8.5,2.01-6.46.17-27.17-2.67-31.37-1.65-3.76.9-9.17,7.51-14.55,7.19l3.71,3.71c-6.92,4.75-14.75-.69-19.71,5.65-2.04-6.45-9.22-4.24-14.53-6.12-4.56-1.61-9.37-10.72-14.55-1.4l5.63,5.63c-11.6-1.86-18.86-.96-30.05,1.91l7.51,4.68-9.35,5.61,15,7.53c-14.78,9.42-14.33-7.25-21.87-7.98-5.02-.47-15.1,6.06-21.29,5.14l20.67-14.11c1.91-.96,1.33-3.83,1.84-4.64,6.45-.02,8.88,4.66,15.02-4.69l-3.78-1.88,3.76-4.69c-3.42,2.53-10.48,4.03-13.16,6.62-1.97,1.94-1.36,3.87-1.84,4.64-16.26.04-12.02,9.37-14.2,9.5-2.19.11-4.88-1.65-7.39-1.65-12.22-.02-5.6-.89-9.78-2.14-23.96-7.14-45.12,5.55-63.74,5.5-4.07-.02-6.01-3.06-7.25-3.1-1.18,0-16.97,9.48-20.51,10.74-7.29,2.57-13.22,2.59-20.56,3.45l-2.99,5.84c.94-6.12-6.62-3.49-11.19-3.64-.15,3.02.04,5.84-1.82,8.48-3.47,5-12.09,1.88-11.39,8.32l25.3-5.65.94,5.61-64.73,16.96,9.73-8.98,32.36-17.57-1.86-6.23,3.85-2.89-13.12-1.88c3.81,6.51-.45,9.2-2.93,1.74-19.41,8.25-37.62,11.18-58.06,15.17l-1.98-5.8c-8.12,1.64-18.79.12-26.37,1.67-11.49,2.33-29.98,13.75-40.91,19.34-8.9,4.56-17.65,11.85-27.47,10.03l-1.87,4.76,5.67.02c-2.95,6.72-7.12,5.8-13.14,3.74v5.63l7.49-1.86c-1.82,5.62.5,8.83-6.14,11.68-21.97,9.46-54.01,5.44-76.6,11.64-7.23,1.99-13.23,8.3-20.54,11.37-14.36,6.01-29.13,7.35-43.63,15.94-2.47,1.47-4.76,7.63-10.79,7.55V0h1927.65Z"/>
    </clipPath>
  </defs>
  <g class="cls-2">
    <image width="2528" height="1684" transform="scale(.78)" xlink:href="../../../../../../../Downloads/Gemini_Generated_Image_49qe3u49qe3u49qe.png"/>
  </g>
</svg>