<?xml version="1.0" encoding="UTF-8"?>
<svg id="Layer_1" xmlns="http://www.w3.org/2000/svg" version="1.1" viewBox="0 0 512 512">
  <!-- Generator: Adobe Illustrator 29.8.5, SVG Export Plug-In . SVG Version: 2.1.1 Build 2)  -->
  <defs>
    <style>
      .st0 {
        fill: none;
        stroke: #fff;
        stroke-linecap: round;
        stroke-linejoin: round;
        stroke-width: 15px;
      }
    </style>
  </defs>
  <path class="st0" d="M7.5,384.3h497"/>
  <path class="st0" d="M23.5,384.3l104.6-134.5c4.5-5.8,12.3-7.8,19-4.9l44.7,19.2,37.6-31.3c6-5,14.8-4.9,20.8.2l174.1,151.4"/>
  <path class="st0" d="M152.8,246.8l92-113.2c6-7.4,17.1-7.9,23.8-1.2l67.6,67.6,18.8-9.4c7.5-3.7,16.6-1.1,20.9,6.1l112.6,187.7"/>
  <path class="st0" d="M191.9,264.1l56.1,120.2"/>
  <path class="st0" d="M322.1,247.9l-10.7,36.6"/>
  <path class="st0" d="M336.2,200l-4.8,16.4"/>
  <path class="st0" d="M87.7,384.3l40.1-72.1"/>
</svg>