<?xml version="1.0" encoding="UTF-8"?>
<svg id="Layer_1" xmlns="http://www.w3.org/2000/svg" version="1.1" viewBox="0 0 512 512">
  <!-- Generator: Adobe Illustrator 29.8.5, SVG Export Plug-In . SVG Version: 2.1.1 Build 2)  -->
  <defs>
    <style>
      .st0 {
        fill: #fff;
        stroke: #000;
        stroke-miterlimit: 10;
      }

      .st1 {
        fill: #464a2f;
      }
    </style>
  </defs>
  <rect class="st0" x="101" y="129" width="322" height="275"/>
  <path class="st1" d="M256,0C114.6,0,0,114.6,0,256s114.6,256,256,256,256-114.6,256-256S397.4,0,256,0ZM360.6,270.1l-90.5,90.5c-6.3,6.3-16.4,6.3-22.6,0-6.3-6.3-6.3-16.4,0-22.6l65.9-66h-169.4c-8.8,0-16-7.2-16-16s7.2-16,16-16h169.4l-65.9-65.9c-6.3-6.3-6.3-16.4,0-22.6,6.3-6.3,16.4-6.3,22.6,0l90.5,90.5c3.8,3.8,5,9.1,4.2,14.1.9,4.9-.3,10.2-4.2,14h0Z"/>
</svg>