<svg xmlns="http://www.w3.org/2000/svg" version="1.1" xmlns:xlink="http://www.w3.org/1999/xlink" width="512" height="512" x="0" y="0" viewBox="0 0 64 64" style="enable-background:new 0 0 512 512" xml:space="preserve" class=""><g><path d="M50.075 46.873c-2.863-1.758-7.997-5.23-10.503-8.889 1.716.378 4.195.601 6.619-.341a1.86 1.86 0 0 0 1.184-1.58 1.88 1.88 0 0 0-.894-1.782c-2.024-1.235-5.661-3.678-7.54-6.299 1.423.142 2.687.079 3.757-.184a1.873 1.873 0 0 0 1.4-1.456 1.867 1.867 0 0 0-.713-1.884c-1.691-1.271-4.687-3.681-6.006-5.726.851-.046 1.565-.229 2.122-.543.473-.267.802-.729.904-1.267a1.894 1.894 0 0 0-.392-1.551c-1.064-1.304-4.664-5.808-6.345-9.027a1.875 1.875 0 0 0-3.331.001c-1.68 3.219-5.28 7.723-6.343 9.027a1.89 1.89 0 0 0-.394 1.551 1.84 1.84 0 0 0 .906 1.268c.567.32 1.299.503 2.136.52-1.312 2.05-4.324 4.473-6.02 5.748a1.864 1.864 0 0 0-.714 1.883 1.871 1.871 0 0 0 1.399 1.457c1.072.262 2.335.324 3.758.184-1.877 2.618-5.517 5.063-7.54 6.299a1.875 1.875 0 0 0-.894 1.781 1.858 1.858 0 0 0 1.183 1.581c2.422.94 4.903.719 6.62.341-2.505 3.657-7.641 7.13-10.504 8.889a1.89 1.89 0 0 0-.88 1.877 1.846 1.846 0 0 0 1.354 1.543c5.433 1.498 10.093.868 13.317-.091v7.561c0 .499.405.904.904.904h6.763a.904.904 0 0 0 .904-.904v-7.553a23.99 23.99 0 0 0 6.778.979c2.002 0 4.201-.251 6.539-.895a1.848 1.848 0 0 0 1.354-1.544 1.892 1.892 0 0 0-.881-1.877z" fill="#464a2f" opacity="1" data-original="#000000" class=""></path></g></svg>