<?xml version="1.0" encoding="UTF-8"?>
<svg id="Layer_1" data-name="Layer 1" xmlns="http://www.w3.org/2000/svg" viewBox="0 0 512 512">
  <defs>
    <style>
      .cls-1 {
        fill: #464a2f;
      }
    </style>
  </defs>
  <path class="cls-1" d="M371.77,176.36l30.47-30.47-21.71-25.26h-52.3l-21.71,25.26,30.47,30.47c-29.62,3.28-57.7,14.9-80.98,33.51-23.28-18.6-51.36-30.22-80.98-33.51l30.47-30.47-21.71-25.26h-52.3l-21.71,25.26,30.47,30.47C61.47,185.05,0,251.99,0,333.02c0,86.91,70.71,157.62,157.62,157.62,35.75,0,70.44-12.15,98.38-34.47,27.93,22.32,62.62,34.48,98.38,34.47,86.92,0,157.62-70.71,157.62-157.62,0-81.04-61.47-147.98-140.23-156.66h0ZM327.24,145.11l7.97-9.27h38.34l7.97,9.27-27.14,27.14-27.14-27.14ZM130.49,145.11l7.97-9.27h38.34l7.97,9.27-27.14,27.14-27.14-27.14ZM157.62,475.44c-78.53,0-142.42-63.89-142.42-142.42s63.89-142.42,142.42-142.42c34.34,0,67.5,12.39,93.39,34.89,8.06,7.01,15.31,14.9,21.62,23.52,17.93,24.51,27.41,53.55,27.41,84,0,27.57-7.77,54-22.56,76.95-.19-.19-.38-.39-.57-.58-.84-.84-1.66-1.7-2.46-2.57-.36-.39-.7-.78-1.05-1.17-.66-.74-1.31-1.48-1.95-2.23-1-1.17-1.97-2.37-2.92-3.59-.34-.43-.67-.86-1.01-1.3-.65-.87-1.29-1.75-1.92-2.64-.2-.27-.4-.55-.59-.82,10.89-18.81,16.62-40.15,16.62-62.04s-5.76-43.3-16.68-62.14l.06-.1-2.58-4.07c-6.64-10.48-14.81-19.91-24.25-27.97l-6.23-5.33-.16.22c-21.42-15.98-47.43-24.62-74.16-24.62-68.38,0-124,55.63-124,124s55.63,124,124,124c26.85,0,52.95-8.73,74.32-24.74.1.12.2.23.29.35.54.66,1.09,1.31,1.64,1.96.42.5.84,1.01,1.27,1.5.59.68,1.18,1.34,1.78,2.01.41.46.81.92,1.23,1.37.66.72,1.33,1.42,1.99,2.12.37.39.73.79,1.11,1.17.82.84,1.65,1.67,2.48,2.49.23.23.45.46.68.68-24.89,19.13-55.4,29.5-86.79,29.49h0ZM289.08,246.04c18.77-14.1,41.69-21.81,65.3-21.81,59.99,0,108.79,48.81,108.79,108.79s-48.8,108.79-108.79,108.79c-23.61,0-46.53-7.71-65.3-21.81,17.14-25.82,26.17-55.73,26.17-86.98s-9.03-61.16-26.17-86.98h0ZM256,379.49c-6.87-14.53-10.43-30.4-10.42-46.46,0-16.18,3.58-32.01,10.42-46.46,6.87,14.53,10.43,30.4,10.42,46.46,0,16.18-3.58,32.01-10.42,46.46ZM222.92,246.04c-17.14,25.82-26.17,55.74-26.17,86.98s9.03,61.17,26.17,86.98c-18.77,14.1-41.69,21.81-65.3,21.81-59.99,0-108.79-48.8-108.79-108.79s48.81-108.79,108.79-108.79c23.61,0,46.53,7.71,65.3,21.81ZM354.38,475.44c-34.34,0-67.5-12.39-93.39-34.89-8.06-7.01-15.31-14.9-21.62-23.52-17.93-24.51-27.41-53.55-27.41-84,0-27.57,7.77-54,22.56-76.95.19.19.38.39.57.59.83.84,1.65,1.7,2.46,2.57.35.38.7.78,1.05,1.17.66.74,1.32,1.48,1.96,2.24,1,1.18,1.97,2.37,2.92,3.59.33.43.67.86,1,1.29.65.87,1.29,1.75,1.92,2.64.2.28.4.55.59.83-10.89,18.81-16.62,40.15-16.62,62.04s5.76,43.3,16.68,62.14l-.06.1,2.58,4.07c6.64,10.48,14.81,19.9,24.24,27.97l6.23,5.33.16-.22c21.42,15.98,47.43,24.62,74.16,24.62,68.38,0,124-55.63,124-124s-55.63-124-124-124c-26.79,0-52.87,8.68-74.32,24.74-.1-.12-.2-.23-.29-.35-.54-.66-1.09-1.31-1.64-1.96-.42-.5-.84-1.01-1.27-1.51-.58-.67-1.17-1.33-1.76-1.99-.42-.46-.83-.93-1.25-1.39-.64-.7-1.3-1.39-1.95-2.07-.39-.41-.76-.82-1.15-1.22-.78-.8-1.57-1.6-2.37-2.38-.26-.26-.52-.52-.78-.78,24.89-19.13,55.4-29.5,86.79-29.49,78.53,0,142.42,63.89,142.42,142.42,0,78.53-63.89,142.41-142.42,142.41h0ZM248.4,21.35h15.21v47.34h-15.21V21.35ZM301.81,78.12l19.88-42.97,13.8,6.38-19.88,42.97-13.8-6.38ZM176.5,41.54l13.8-6.38,19.88,42.97-13.8,6.38-19.88-42.97Z"/>
</svg>